<svg width="32" height="32" viewBox="0 0 450 350" fill="none" xmlns="http://www.w3.org/2000/svg">
<path d="M50 48.4615C50 27.2198 67.2198 10 88.4616 10H194.136C201.866 10 209.416 12.3291 215.803 16.6836L240.197 33.3164C246.584 37.6709 254.134 40 261.864 40H323.538C344.78 40 362 57.2198 362 78.4615V121.538C362 142.78 344.78 160 323.538 160H88.4616C67.2198 160 50 142.78 50 121.538L50 48.4615Z" fill="#FFE7C6" stroke="#0D0B22" stroke-width="20"/>
<path d="M60 117.143C60 96.6294 76.1178 80 96 80H384C403.882 80 420 96.6294 420 117.143V302.857C420 323.371 403.882 340 384 340H96C76.1178 340 60 323.371 60 302.857V117.143Z" fill="#FFFAF3"/>
<path d="M50 170V117.143C50 96.6294 66.5655 80 87 80H383C403.435 80 420 96.6294 420 117.143V302.857C420 323.371 403.435 340 383 340H87C66.5655 340 50 323.371 50 302.857V230.5" stroke="#0D0B22" stroke-width="20" stroke-linejoin="round"/>
<path d="M402.155 150H357.845C336.944 150 320 166.512 320 186.88V213.12C320 233.488 336.944 250 357.845 250H402.155C423.056 250 440 233.488 440 213.12V186.88C440 166.512 423.056 150 402.155 150Z" fill="white" stroke="#0D0B22" stroke-width="20" stroke-linecap="round" stroke-linejoin="round"/>
<path d="M239.002 150H190.998C168.356 150 150 166.512 150 186.88V213.12C150 233.488 168.356 250 190.998 250H239.002C261.644 250 280 233.488 280 213.12V186.88C280 166.512 261.644 150 239.002 150Z" fill="white" stroke="#0D0B22" stroke-width="20" stroke-linecap="round" stroke-linejoin="round"/>
<path d="M280 200L320 200" stroke="#0D0B22" stroke-width="20"/>
<path d="M150 200L35 200C21.1929 200 10 211.193 10 225L10 238" stroke="#0D0B22" stroke-width="20" stroke-linecap="round" stroke-linejoin="round"/>
<path d="M55 180H45C42.2386 180 40 177.761 40 175V155C40 152.239 42.2386 150 45 150H55C57.7614 150 60 152.239 60 155V175C60 177.761 57.7614 180 55 180Z" fill="#0D0B22"/>
<path d="M45 220L55 220C57.7614 220 60 222.239 60 225L60 245C60 247.761 57.7614 250 55 250L45 250C42.2386 250 40 247.761 40 245L40 225C40 222.239 42.2386 220 45 220Z" fill="#0D0B22"/>
</svg>